# xmcd
#
# Track frame offsets: 
#        150
#        13621
#        30182
#        38405
#        50542
#        60296
#        70412
#        86129
#        100881
#        112036
#        124965
#        146664
#        163144
#        176187
#        190273
#        203585
#        218133
#        230740
#        245806
#        256874
#        268910
#        285800
#        298225
#        315993
#
# Disc length: 4426 seconds
#
# Revision: 0
# Processed by: cddbd v1.5.2PL0 Copyright (c) Steve Scherf et al.
# Submitted via: ExactAudioCopyFreeDBPlugin 1.0
#
DISCID=63114818
DTITLE=Various Artist - Bluegrass Advent Kralupy
DYEAR=1999
DGENRE=Bluegrass
TTITLE0=EG Revival - Back up and Push
TTITLE1=EG Revival - Shouting on the Hills of Glory
TTITLE2=EG Revival - Lord Put the Rainbow in the Clouds
TTITLE3=EG Revival - The First to Know
TTITLE4=EG Revival - Everything You Promised
TTITLE5=EG Revival - I'm the Boss
TTITLE6=Děvín - Tom Dooley
TTITLE7=Děvín - V dešti jsem stál
TTITLE8=Děvín - Hold to a Dream
TTITLE9=Děvín - Tvář
TTITLE10=Děvín - Face Tomorrow
TTITLE11=Děvín - Walking in Jerusalem
TTITLE12=Royal Flush - Katy Daley
TTITLE13=Royal Flush - Cloudy Days
TTITLE14=Royal Flush - Chalk up Another One
TTITLE15=Royal Flush - I Wonder Where Are You Tonight
TTITLE16=Royal Flush - Moly and Tenbrooks
TTITLE17=Royal Flush - Studebaker
TTITLE18=Forte - Cizí město
TTITLE19=Forte - Klaun
TTITLE20=Forte - Máma mi říká
TTITLE21=Forte - Telefon
TTITLE22=Forte - Mám jedno místo
TTITLE23=Forte - Nekonečná cesta
EXTD=
EXTT0=
EXTT1=
EXTT2=
EXTT3=
EXTT4=
EXTT5=
EXTT6=
EXTT7=
EXTT8=
EXTT9=
EXTT10=
EXTT11=
EXTT12=
EXTT13=
EXTT14=
EXTT15=
EXTT16=
EXTT17=
EXTT18=
EXTT19=
EXTT20=
EXTT21=
EXTT22=
EXTT23=
PLAYORDER=
